PathFileType	4	(X/Y/Z)	Kaydara	
DataRate	CameraRate	NumFrames	NumMarkers	Units	OrigDataRate	OrigDataStartFrame	OrigNumFrames	
240.00	240.00	4	72	mm	240.00	180	359	
Frame#	Time	Hips			RightUpLeg			RightLeg			RightFoot			RightFoot_End			LeftUpLeg			LeftLeg			LeftFoot			LeftFoot_End			Spine			Spine1			Spine2			Spine3			Neck			Head			Head_End			RightShoulder			RightArm			RightForeArm			RightHand			RightHandThumb1			RightHandThumb2			RightHandThumb3			RightHandThumb3_End			RightInHandIndex			RightHandIndex1			RightHandIndex2			RightHandIndex3			RightHandIndex3_End			RightInHandMiddle			RightHandMiddle1			RightHandMiddle2			RightHandMiddle3			RightHandMiddle3_End			RightInHandRing			RightHandRing1			RightHandRing2			RightHandRing3			RightHandRing3_End			RightInHandPinky			RightHandPinky1			RightHandPinky2			RightHandPinky3			RightHandPinky3_End			LeftShoulder			LeftArm			LeftForeArm			LeftHand			LeftHandThumb1			LeftHandThumb2			LeftHandThumb3			LeftHandThumb3_End			LeftInHandIndex			LeftHandIndex1			LeftHandIndex2			LeftHandIndex3			LeftHandIndex3_End			LeftInHandMiddle			LeftHandMiddle1			LeftHandMiddle2			LeftHandMiddle3			LeftHandMiddle3_End			LeftInHandRing			LeftHandRing1			LeftHandRing2			LeftHandRing3			LeftHandRing3_End			LeftInHandPinky			LeftHandPinky1			LeftHandPinky2			LeftHandPinky3			LeftHandPinky3_End			
		X1	Y1	Z1	X2	Y2	Z2	X3	Y3	Z3	X4	Y4	Z4	X5	Y5	Z5	X6	Y6	Z6	X7	Y7	Z7	X8	Y8	Z8	X9	Y9	Z9	X10	Y10	Z10	X11	Y11	Z11	X12	Y12	Z12	X13	Y13	Z13	X14	Y14	Z14	X15	Y15	Z15	X16	Y16	Z16	X17	Y17	Z17	X18	Y18	Z18	X19	Y19	Z19	X20	Y20	Z20	X21	Y21	Z21	X22	Y22	Z22	X23	Y23	Z23	X24	Y24	Z24	X25	Y25	Z25	X26	Y26	Z26	X27	Y27	Z27	X28	Y28	Z28	X29	Y29	Z29	X30	Y30	Z30	X31	Y31	Z31	X32	Y32	Z32	X33	Y33	Z33	X34	Y34	Z34	X35	Y35	Z35	X36	Y36	Z36	X37	Y37	Z37	X38	Y38	Z38	X39	Y39	Z39	X40	Y40	Z40	X41	Y41	Z41	X42	Y42	Z42	X43	Y43	Z43	X44	Y44	Z44	X45	Y45	Z45	X46	Y46	Z46	X47	Y47	Z47	X48	Y48	Z48	X49	Y49	Z49	X50	Y50	Z50	X51	Y51	Z51	X52	Y52	Z52	X53	Y53	Z53	X54	Y54	Z54	X55	Y55	Z55	X56	Y56	Z56	X57	Y57	Z57	X58	Y58	Z58	X59	Y59	Z59	X60	Y60	Z60	X61	Y61	Z61	X62	Y62	Z62	X63	Y63	Z63	X64	Y64	Z64	X65	Y65	Z65	X66	Y66	Z66	X67	Y67	Z67	X68	Y68	Z68	X69	Y69	Z69	X70	Y70	Z70	X71	Y71	Z71	X72	Y72	Z72	

180	0.746	3198.941	914.58397	126.699	3251.753320144013	894.5207144359421	52.6110253041947	3155.99939968113	498.6538974587044	-45.37762475684955	3141.4500161926126	107.2788731917986	-121.67718918280217	2990.038866438575	30.571577354573105	-33.76366550909717	3160.1701377434006	908.3958088565674	212.2612207097118	3068.5062874395335	506.31915610020377	285.2777859007352	2992.9741546034816	81.75259527447372	372.0319860458632	2871.66812716875	-0.7709059799110851	249.50494851752345	3133.5920921272873	1032.5490148128754	78.83044236389472	3072.514595244266	1088.9355184600254	28.563949695813267	3006.0693037622277	1140.684558555369	-27.498679649340975	2938.893085935006	1178.96241937247	-86.31911717470335	2865.9402749258024	1220.2892935779535	-147.50192198116048	2797.877653346988	1258.3769609838064	-200.6497662834636	2659.704307990017	1336.6911228545364	-212.19079915350895	2908.623726873987	1203.9168024073715	-150.7713210111076	2956.8982685426904	1173.8938585968267	-254.61546747506003	3007.093885293319	940.0371786145574	-240.5906628975526	2992.497475302531	819.1753453064761	-392.80412004501875	2997.150920610898	833.168003033267	-410.9192939630964	2985.357086828864	838.2285142019166	-429.9994569320413	2977.0724596100276	838.320082097537	-443.5065065299292	2970.1048413541557	835.4599443347108	-454.9546301518871	2999.0673546653516	822.085325966096	-413.67957230729627	3001.283160430256	814.0677924948208	-445.0513491071048	2993.501773645501	808.8175540795205	-465.2220596008968	2983.4326945998173	809.1524379148365	-474.237239803702	2971.569786921345	811.8572292899204	-479.32141749853446	2998.3528802421583	813.0439811646554	-413.10604055544843	3000.1303091879436	800.3333561942396	-443.3953762155441	2991.526164562241	793.4377312065355	-465.2261256513551	2979.3238988986354	793.2819687854258	-476.01645395858026	2966.317332201897	795.9693709438251	-481.5375828788801	2997.8862045578653	806.8334870925669	-411.9248255775521	2999.3509279657333	789.970977426582	-438.11654716801047	2991.7320684047468	782.7887070073115	-456.9128247645396	2979.898568969682	782.016062301624	-467.19801457372756	2967.639044299285	784.2479540228269	-472.33100322142593	2996.5385712415764	800.1234966982423	-409.46119423598225	2997.369490328309	780.4261669041388	-432.05774993173696	2991.0751394446575	772.9201306214467	-446.63356977403197	2982.3501575712116	771.5077316992315	-453.9055923982995	2971.4363578230495	772.9963194125581	-458.32019667359265	2871.7110584644743	1209.4610384682733	-102.4557956905766	2826.657389206038	1170.2353988774437	-0.44958174822541397	2931.807743042	999.7459723136354	-129.1308433054332	2989.3624876626695	871.1088056792112	-300.2767042815488	3008.332228240695	880.364018084077	-314.0919897700746	3035.806175664115	870.1337973392621	-323.1324352993433	3054.3382189879976	859.9407657932892	-330.17401801039847	3069.2735984143337	848.81808420805	-336.68230376326295	3007.177912714966	871.2770542261036	-319.0428655371855	3035.3863126176134	855.5418854524795	-346.11575148756083	3058.974671501854	838.9063919318787	-359.5619297475638	3074.112699049863	829.1641302421089	-362.2524022950586	3086.961594312438	821.5051946980811	-360.6553839082436	3004.75010406859	863.208114180273	-319.8726889290015	3030.949400435831	843.4976340583742	-346.7291613367092	3056.2820961027987	824.3242606266906	-361.4165549121479	3074.350308669039	812.080759421845	-364.66966235353095	3088.3144059129595	803.4623772592258	-362.92570887283034	3002.276522981627	857.9434823867741	-319.83313468877805	3023.4964146087204	835.8099245869261	-344.0578237238103	3045.1197295949437	818.0857214965094	-356.83163976340853	3062.3053955197515	805.7381364595993	-359.95476048334353	3075.3202188515147	797.3798532983099	-358.3080014804577	2998.9116786972354	852.0594971402762	-318.4909163705726	3016.179934661708	828.2420848539765	-340.10914194269907	3032.690244818645	812.5656655809216	-350.18848815784094	3044.836209313996	802.8416510193871	-352.3942115572992	3056.141161808935	795.0245646688602	-350.8938439787216
181	0.75	3198.941	914.58397	126.699	3251.6976564558413	894.4583560001006	52.59999001733948	3155.920675458632	498.6055981631391	-45.420701072439236	3141.438542365333	107.22896923779635	-121.7115503606536	2990.0311103063013	30.519101154671937	-33.79386226679174	3160.2169690666938	908.4559697898106	212.27738798967957	3068.5587975712015	506.3802482114932	285.3027639439223	2992.9484484361265	81.81538691685024	371.98299722377277	2871.6491961790543	-0.7174589837948603	249.45556668212222	3133.6339879431107	1032.5618243145377	78.80823456411422	3072.578017620262	1088.952894844216	28.52139566166515	3006.1526030567225	1140.7078086701445	-27.559106246680066	2938.9897114604223	1178.9953401559703	-86.38886450612057	2866.0510562870127	1220.332177111746	-147.58217667546586	2798.0026900669627	1258.4314677070588	-200.7401994097826	2659.8532968289546	1336.7656656440035	-212.37769590064158	2908.685987102746	1203.875620679545	-150.84247065330626	2956.7084019784097	1173.5035636387952	-254.49731158152628	3006.312892669486	940.1104375080578	-239.64449528293662	2991.2351865455826	819.220528182368	-390.50700409955084	2995.8718451397103	833.1861212104673	-408.49535381188434	2984.173228033835	838.2073122971422	-427.418884356875	2975.952495397259	838.2667239275081	-440.81215731251694	2969.0360790367304	835.3756933958996	-452.1614122918902	2997.765433391208	822.0828934702367	-411.22620965183864	2999.9665313409637	813.9790079555163	-442.34588006817745	2992.242508023705	808.6737683189571	-462.34621679071677	2982.2493036542664	808.9878418172644	-471.2816464787862	2970.476322155033	811.6844356807773	-476.317467034511	2997.0481191749427	813.0318101025218	-410.64891799002845	2998.8096486278487	800.231691542304	-440.69032082293006	2990.2678553723717	793.2750503072448	-462.3354868401374	2978.157014086819	793.0937013184679	-473.0297571353235	2965.248786273991	795.7719020669093	-478.4980513836151	2996.5791080068634	806.8165396292769	-409.47134728316144	2998.0254910178987	789.869385297113	-435.4436495791114	2990.4607632676134	782.6330553275402	-454.0788994837867	2978.7153356317654	781.8352641120314	-464.27181921573856	2966.5482194095075	784.05828266812	-469.355312578516	2995.234762472174	800.1043330970448	-407.0202624226299	2996.0485180345645	780.3276398412817	-429.4227776090303	2989.797264075771	772.7773132665205	-443.87174552525823	2981.1364005930623	771.346088193678	-451.0774778949168	2970.3043905680174	772.8265381062913	-455.4488197109458	2871.862917841738	1209.5833279198787	-102.53932791949796	2826.9548477318745	1170.837858469027	-0.49197171464854605	2931.558476118552	1000.0856003735815	-128.27349259232872	2988.3128609856803	871.0765890653763	-298.4838270564193	3007.095962225465	880.2959620827671	-312.216497726739	3034.362135220806	870.045702629751	-321.2589320412434	3052.7553279250706	859.8403795950691	-328.2962921083992	3067.5799550394304	848.7088766328743	-334.7962600378788	3005.9463327832077	871.2100029773619	-317.12749473762693	3033.894624947773	855.435032998517	-344.04519977640336	3057.2974011053666	838.7807966282132	-357.44853718157054	3072.332963882507	829.0335301672246	-360.16474739159685	3085.1057578133473	821.3749354927505	-358.6243568329477	3003.543257815064	863.147403023842	-317.950562663807	3029.5022319783147	843.401528450885	-344.65200411857285	3054.636521897123	824.2086792657772	-359.2923439325732	3072.58308228438	811.9596079910128	-362.5763555407603	3086.4648681807766	803.3418260557777	-360.89429150487274	3001.0938209849614	857.8881774663439	-317.9094667611268	3022.1193930341165	835.7273359946106	-341.99174637313	3043.5743469785493	817.9872130903046	-354.7244890011774	3060.6450958184882	805.6348151963743	-357.877386990147	3073.583676130429	797.277363210173	-356.28880528317416	2997.764081414754	852.0122701028536	-316.57571119859176	3014.875776532409	828.1745051117041	-338.06603951336615	3031.2592463929336	812.487103518992	-348.1130283135104	3043.3252503554613	802.7604334684746	-350.34072732809835	3054.5648844122393	794.9445731315541	-348.8920432844581
182	0.754	3198.941	914.58397	126.699	3251.642544451945	894.3957827869992	52.589523448742774	3155.839604761734	498.5587517903641	-45.46717444786784	3141.423273503911	107.17839520464878	-121.73751141729923	2990.020803754273	30.465649055166978	-33.813785936692994	3160.2630504235713	908.5162939128866	212.2931178862736	3068.6114304313396	506.4420312482192	285.33123272969067	2992.9247799745967	81.87701103097893	371.93040266900755	2871.6321628141195	-0.6634308757664295	249.40155300803983	3133.6767427417003	1032.574875655755	78.78541301488632	3072.6429942132368	1088.9713126164502	28.478299040313413	3006.2378523167863	1140.7327553913578	-27.619927316931175	2939.0878516433613	1179.0299386046981	-86.45852220568817	2866.1628918086276	1220.3765083898736	-147.66195308233944	2798.128343907192	1258.4870293603542	-200.82987763933133	2660.001366928389	1336.839220720827	-212.55432076950007	2908.749458879319	1203.8359265889321	-150.91377596551985	2956.5155998275072	1173.1099956477904	-254.38055667547764	3005.521178913022	940.1890694006113	-238.68849949296143	2989.9754526174506	819.2653252448732	-388.1627395600405	2994.5851940897605	833.2130939433976	-406.0090669865295	2982.978016055447	838.2032581829294	-424.7650710692591	2974.8198671527216	838.237017379196	-438.0383901806312	2967.954689006959	835.32113984604	-449.2848322777793	2996.459375440653	822.093304430611	-408.71394482009396	2998.642002941474	813.9237029505026	-439.56969444728196	2990.9746603992758	808.5750034624353	-459.39257221068624	2981.057185847961	808.8716993585016	-468.24423894932477	2969.374198660851	811.5604123078089	-473.2286464308716	2995.7430337581386	813.0336129269407	-408.13719151690714	2997.487055316618	800.1647409698695	-437.9214630284749	2989.007386188174	793.1597565283498	-459.37392091864916	2976.988042709655	792.9569998762249	-469.9675838299491	2964.178349257867	795.6263633159823	-475.37984094871257	2995.2744648468833	806.8138758143631	-406.96659874921136	2996.7034428306565	789.8010424217547	-432.71411781523796	2989.1931803915995	782.5217458589059	-451.18276490800105	2977.5361778124843	781.7028642069266	-461.27936365226884	2965.4617879474176	783.9173648337968	-466.3105103074216	2993.9368104710215	800.0989168381603	-404.53228155347864	2994.736317598654	780.2600569105458	-426.7384193466591	2988.52925318581	772.6743139152693	-441.05708484144543	2979.933165192267	771.2272166272527	-448.1940626607983	2969.1834560828534	772.6998405571057	-452.5198985437105	2872.01598510929	1209.7071858268723	-102.62199377370939	2827.2518775519	1171.4400966048117	-0.5357631703055326	2931.2997443375602	1000.4185637222388	-127.41466248077595	2987.254602716171	871.0586685905234	-296.700643287145	3005.847825884902	880.2416908279268	-310.3482867642185	3032.902351000959	869.9711909852783	-319.3923167072246	3051.154104658714	859.7535907748086	-326.4251995105351	3065.865913911961	848.6134103375696	-332.9166541016415	3004.703017874105	871.1572591418015	-315.2190084698487	3032.3866675686068	855.3430160832028	-341.9783693065093	3055.6004668941537	838.6703266276493	-355.33796833448383	3070.5315870073464	828.9180260310516	-358.0803040689595	3083.226731969704	821.2596062419982	-356.59749978353364	3002.325117833158	863.1013980198376	-316.03554565994546	3028.0395852369493	843.3208599553482	-342.57899156879296	3052.9718378617217	824.108902244938	-357.17133981005117	3070.79439492872	811.8542495362007	-360.4867433941344	3084.5921931016096	803.2368983606293	-358.8676274688801	2999.9002543179467	857.8478489718917	-315.99313373244235	3020.728136285133	835.6606188536938	-339.93050296798214	3042.0116449162356	817.9049467929173	-352.6214017928847	3058.965251653875	805.5477524516498	-355.8045724426564	3071.8260331303377	797.1909849474599	-354.27517520592806	2996.6062286973806	851.9803005186329	-314.6683008287353	3013.558652530518	828.1231836582541	-336.02867455388684	3029.8129530792717	812.4251718931217	-346.04277386744434	3041.797441515109	802.6958944681882	-348.2928505497998	3052.9704185071255	794.881151470828	-346.89676594588667
183	0.758	3198.941	914.58397	126.699	3251.5881134783526	894.3332105335312	52.57965557328626	3155.756861584094	498.5134286506327	-45.517020452131185	3141.405151384425	107.12782087970152	-121.75830085327821	2990.0088995678307	30.411982135618118	-33.82656608931757	3160.3082932706056	908.5765783179634	212.3083595310796	3068.663099206659	506.5040494146162	285.3606253305049	2992.9038247145627	81.93650254342873	371.8706858889084	2871.6176178509295	-0.6094200137478143	249.33923037359182	3133.720168921667	1032.5881009003435	78.76206858878183	3072.709122399041	1088.990460842803	28.43472116664399	3006.3246117554163	1140.7590022020606	-27.68112402085308	2939.1871563235927	1179.065689731451	-86.52826439821246	2866.275504145102	1220.421571524126	-147.74165167296377	2798.2543921124734	1258.5426884274975	-200.91945631680633	2660.148130902298	1336.910906788302	-212.71743662835917	2908.8141429489265	1203.7977026762126	-150.98538270475066	2956.3193956894934	1172.7106083409524	-254.26565286548004	3004.720904179732	940.2695119162519	-237.71398146541497	2988.7195901791506	819.3165357540496	-385.76225008045816	2993.293752316228	833.2558020323794	-403.4527423415152	2981.775174534959	838.2228842208294	-422.0318663023802	2973.6788240205615	838.2371122768117	-435.18008799075943	2966.86524868215	835.3019951256382	-446.32060119488654	2995.1516751281147	822.1229411847531	-406.13506883572575	2997.313241837791	813.9071243998388	-436.7170481423981	2989.7025263655264	808.5257410380423	-456.35677398934456	2979.86093885062	808.8082319252812	-465.12142383297174	2968.268204110284	811.4893107721705	-470.0519179534256	2994.4397196472332	813.0554325395213	-405.56297854354534	2996.165552492584	800.1372561054523	-435.0827428733379	2987.74841007458	793.0957252636231	-456.33685780421854	2975.820975029087	792.8754063547791	-466.82626482522596	2963.110206151539	795.5362106216636	-472.1798835415257	2993.9740603587834	806.8313261871557	-404.40252449113353	2995.3871344510108	789.7704340041697	-429.92137919257004	2987.9321602554974	782.4584599327279	-448.2191141808116	2976.364229791019	781.6222010627671	-458.21619277948344	2964.383052412561	783.8284480588568	-463.19269829793944	2992.6460987514265	800.112877762411	-401.98894085061306	2993.434548258674	780.2276849980253	-423.9975672777149	2987.2730627423857	772.6146994643991	-438.1834357871649	2978.7425756814946	771.1544064327232	-445.24978822332685	2968.0758012417564	772.6194198924251	-449.5283521165358	2872.169639663308	1209.8313073590055	-102.70429458206347	2827.5473440183296	1172.037924920658	-0.5847675901385114	2931.0314068245566	1000.740557265731	-126.55674829110326	2986.1889198591834	871.0519750130926	-294.9324028606723	3004.5883787310345	880.1984741368012	-308.4926213752164	3031.4272027051343	869.9081169579938	-317.53794275255353	3049.534882927438	859.6786366050945	-324.56612763421634	3064.1318379321965	848.5302203448944	-331.0488776357978	3003.4487200771123	871.1160069562889	-313.32255458103083	3030.862926479493	855.2634354511455	-339.9202236732836	3053.884337291823	838.5730215521393	-353.23515173504074	3068.7090742803102	828.8159998985117	-356.00406702927245	3081.325086266734	821.1579194360407	-354.57992188681624	3001.0966683983556	863.0672086216457	-314.1327204241133	3026.5623106286816	843.253103885988	-340.5149911343009	3051.288907073353	824.0228727984226	-355.05836370081505	3068.985170024	811.7630351811405	-358.40572319235076	3082.6973810871723	803.1463044126616	-356.85073740873077	2998.6969769949746	857.819541426417	-314.08917546088287	3019.3238218242154	835.6070843635125	-337.8789001515481	3040.432844471946	817.8366297628961	-350.52713672391803	3057.267159944795	805.4750426314386	-353.74114476816544	3070.0486672994266	797.1191474887721	-352.2720531473453	2995.4394875137446	851.9605583854487	-312.7736904636259	3012.2300782737625	828.0852839997991	-334.0018130949303	3028.3529664106695	812.3773316966813	-343.9824411427334	3040.2544639573152	802.6457678725076	-346.2553429003971	3051.3595309057437	794.8323246953437	-344.9128715932045
